<?xml version="1.0" encoding="utf-8"?><svg xmlns="http://www.w3.org/2000/svg" xmlns:xlink="http://www.w3.org/1999/xlink"><symbol viewBox="0 0 24 24" id="border" xmlns="http://www.w3.org/2000/svg"><path d="M15 22V11l7-8.32v8.4L15 22zM0 9l13.731-9H21l-8 9H0zm12.923 13H0V11.08h12.923V22z"/></symbol><symbol viewBox="0 0 23 20" id="countertop" xmlns="http://www.w3.org/2000/svg"><path d="M23 8.977c0 1.516-3.677 2.785-8.643 3.145a2.566 2.566 0 01-1.053 1.384 2.59 2.59 0 011.177 2.176c0 .356-.071.696-.199 1.005 2.12.264 3.607.874 3.607 1.586 0 .954-2.67 1.727-5.963 1.727s-5.963-.773-5.963-1.727c0-.712 1.486-1.322 3.607-1.586a2.623 2.623 0 01-.2-1.005c0-.911.465-1.708 1.166-2.17-.033-.022-.074-.032-.106-.056l-.021-.018a2.578 2.578 0 01-.898-1.263C4.109 11.909 0 10.58 0 8.977c0-.1.022-.198.053-.295H0V6.023c0 1.468 5.149 2.659 11.5 2.659S23 7.491 23 6.023v2.659h-.053a.97.97 0 01.053.295zM.075 5.727A.68.68 0 000 6.023v-.296h.075zm22.925 0v.296c0-.1-.029-.199-.075-.296H23zM11.5 6.5C5.149 6.5 0 5.045 0 3.25S5.149 0 11.5 0 23 1.455 23 3.25 17.851 6.5 11.5 6.5z"/></symbol><symbol viewBox="0 0 24 21" id="fireplace" xmlns="http://www.w3.org/2000/svg"><path d="M21.231 21V7.667H2.769V21H0V4.809h24V21h-2.769zM12.027-.003l9.228 2.862H2.798l9.229-2.862zM9.37 14.182a10.297 10.297 0 01-.804-1.454s.866-.036 1.608 1.454c.743 1.491 1.913.168 1.609-.727-.304-.894-1.171-1.436 0-2.181 1.171-.746 2.413-.728 2.413-.728s-1.702.952-.805 2.182c.897 1.23 1.063 2.866.805 3.636-.259.77 0 .727 0 .727s-.171.409.804-.727c.974-1.136 1.055-.503.804-1.454-.251-.952 1.923-.205 1.609 1.454-.315 1.659.883 3.764-.805 4.363-1.687.599-8.042 0-8.042 0s-1.993-2.218-.805-3.636c1.189-1.418 2.1-2.176 1.609-2.909z"/></symbol><symbol viewBox="0 0 25 25" id="hamam" xmlns="http://www.w3.org/2000/svg"><path d="M18 18v-7h7v7h-7zm0-16h7v7h-7V2zM9 18h7v7H9v-7zm0-9h7v7H9V9zm0-9h7v7H9V0zM0 15h7v7H0v-7zm0-9h7v7H0V6z"/></symbol><symbol viewBox="0 0 28 20" id="interior" xmlns="http://www.w3.org/2000/svg"><path d="M23 15V4l5-4v19l-5-4zm-7.5-2c-.565 0-1.08.194-1.498.51A2.48 2.48 0 0012.5 13c-.565 0-1.08.194-1.498.51A2.48 2.48 0 009.5 13a2.5 2.5 0 00-2.45 2H7V4h14v11h-3.05a2.502 2.502 0 00-2.45-2zM0 0l5 4v11l-5 4V0zm8.101 16A1.465 1.465 0 018 15.5a1.5 1.5 0 113 0c0 .177-.045.342-.101.5h.202a1.465 1.465 0 01-.101-.5 1.5 1.5 0 113 0c0 .177-.045.342-.101.5h.202a1.465 1.465 0 01-.101-.5 1.5 1.5 0 113 0c0 .177-.045.342-.101.5H17l1 2H7l1-2h.101zM18 20H7v-1h11v1z"/></symbol><symbol viewBox="0 0 20 20" id="panel" xmlns="http://www.w3.org/2000/svg"><path d="M4.167 20V0L20 2v16L4.167 20zM17.174 8.859s-.978-.411-2.027-.238c.741-.978 1.096-2.167 1.096-2.167s-1.098.148-2.027.928c.398-1.343.329-2.709.329-2.709s-1.004.788-1.587 2.074c-.073-1.49-.629-2.748-.629-2.748s-.557 1.129-.699 2.497c-.532-1.187-1.32-1.942-1.32-1.942s-.162 1.326.13 2.653a4.935 4.935 0 00-1.807-1.083s.261 1.299.936 2.36c-1.03-.29-1.988-.041-1.988-.041s.639 1.051 1.585 1.667c-1.031.277-1.832 1.008-1.832 1.008s.909.627 1.965.693c-.859.797-1.367 1.887-1.367 1.887s1.026.095 2.012-.399c-.54 1.18-.669 2.445-.669 2.445s.968-.452 1.719-1.424a9.315 9.315 0 00.141 2.591s.747-.923 1.134-2.207A8.017 8.017 0 0013.197 17s.399-1.237.358-2.617a5.939 5.939 0 001.558 1.615s-.017-1.343-.48-2.584a4.485 4.485 0 001.923.659s-.428-1.221-1.235-2.113c1.053.052 1.964-.409 1.964-.409s-.769-.892-1.782-1.285c.979-.506 1.671-1.407 1.671-1.407zm-2.303 3.618a5.49 5.49 0 00-.945-.103c.028.49.086.955.168 1.395a6.947 6.947 0 00-.898-.681c-.145.5-.248.991-.317 1.474a9.792 9.792 0 00-.618-1.233 8.32 8.32 0 00-.671.95c-.035-.4-.089-.806-.168-1.219a5.996 5.996 0 00-.908.516c.092-.384.168-.785.222-1.204a5.115 5.115 0 00-.989-.005c.203-.303.395-.63.574-.986a6.03 6.03 0 00-.904-.524c.279-.171.556-.369.83-.6a8.506 8.506 0 00-.666-.957c.308-.009.623-.045.944-.112a10.587 10.587 0 00-.315-1.226c.285.154.584.287.9.394.056-.442.084-.871.089-1.287.214.29.447.569.702.833.188-.375.346-.753.479-1.131.106.378.233.756.385 1.132.288-.245.549-.508.787-.784-.019.402-.019.815.004 1.239.339-.073.659-.176.962-.303a10.8 10.8 0 00-.378 1.136c.332.111.657.185.974.228a8.04 8.04 0 00-.696.841c.269.277.544.515.821.721a6.09 6.09 0 00-.897.403c.161.396.339.758.529 1.093zM0 1l2.111-1v20L0 18V1z"/></symbol><symbol viewBox="0 0 18 24" id="product" xmlns="http://www.w3.org/2000/svg"><path d="M12 10.287c.126.231-2 3.428-2 3.428h7.477c.333.805.523 1.668.523 2.571 0 2.425-1.308 4.586-3.349 6H3.349C1.308 20.872 0 18.711 0 16.286c0-.903.19-1.766.523-2.571H8s.859-4.071 0-5.142c-.859-1.071-2-1.714-2-1.714s-.522 1.34-2 1.714c-1.478.374-4 0-4 0s.452-2.581 2-3.428c1.548-.848 4 0 4 0s1.1 1.573 2 1.714c.603.094.389-1.373.188-2.935C5.815 3.79 4 3.089 4 2.238 4 1.361 5.929.646 8.408.544 8.992-.102 10 .002 10 .002l-.005.556C12.279.716 14 1.408 14 2.238c0 .832-1.733 1.525-4.028 1.681C9.963 5.847 9.964 7.9 10 8.573c.073 1.379 0 1.714 0 1.714s1.654-.832 2-1.714c.346-.883.254-1.932 2-3.428.916-.785 4 0 4 0s-1.447 2.838-2 3.428c-1.234 1.316-4.126 1.483-4 1.714z"/></symbol><symbol viewBox="0 0 27 24" id="sill" xmlns="http://www.w3.org/2000/svg"><path d="M0 24v-3h27v3H0zm13.5-5H0l5-7h2.05c-.013.168-.05.329-.05.5 0 1.291.388 2.488 1.037 3.5h10.926A6.461 6.461 0 0020 12.5c0-.171-.037-.332-.05-.5H22l5 7H13.5zm-2.797-5C9.673 13.175 9 11.922 9 10.5c0-.171.032-.334.05-.5h8.899c.019.166.051.329.051.5 0 1.422-.673 2.675-1.704 3.5h-5.593zM15 7c.063.135-1 2-1 2h-1s.43-2.375 0-3-1-1-1-1-.261.782-1 1c-.739.218-2 0-2 0s.226-1.506 1-2c.774-.495 2 0 2 0s.55.918 1 1c.45.082-.01-1.866 0-3l.002-.02C11.86 1.887 11 1.484 11 1c0-.552 1.119-1 2.5-1S16 .448 16 1c0 .485-.863.888-2.007.98-.009 1.291-.018 3.464.007 4.02.037.805 0 1 0 1s.827-.485 1-1c.173-.515.127-1.127 1-2 .458-.458 2 0 2 0s-.724 1.656-1 2c-.617.768-2.063.865-2 1z"/></symbol><symbol viewBox="0 0 24 19" id="stair" xmlns="http://www.w3.org/2000/svg"><path d="M.444 12l1.676-2h19.759l1.677 2H.444zm2.515-8h18.082v4H2.959V4zM6 0h12l1.951 2H4.049L6 0zm18 14v5H0v-5h24z"/></symbol></svg>