<?xml version="1.0" encoding="utf-8"?><svg xmlns="http://www.w3.org/2000/svg" xmlns:xlink="http://www.w3.org/1999/xlink"><symbol viewBox="0 0 24 24" id="check" xmlns="http://www.w3.org/2000/svg"><path d="M9 16.17L4.83 12l-1.42 1.41L9 19 21 7l-1.41-1.41z"/></symbol><symbol viewBox="0 0 24 24" id="copyright" xmlns="http://www.w3.org/2000/svg"><path d="M10.08 10.86c.05-.33.16-.62.3-.87s.34-.46.59-.62c.24-.15.54-.22.91-.23.23.01.44.05.63.13.2.09.38.21.52.36s.25.33.34.53.13.42.14.64h1.79c-.02-.47-.11-.9-.28-1.29s-.4-.73-.7-1.01-.66-.5-1.08-.66-.88-.23-1.39-.23c-.65 0-1.22.11-1.7.34s-.88.53-1.2.92-.56.84-.71 1.36S8 11.29 8 11.87v.27c0 .58.08 1.12.23 1.64s.39.97.71 1.35.72.69 1.2.91 1.05.34 1.7.34c.47 0 .91-.08 1.32-.23s.77-.36 1.08-.63.56-.58.74-.94.29-.74.3-1.15h-1.79c-.01.21-.06.4-.15.58s-.21.33-.36.46-.32.23-.52.3c-.19.07-.39.09-.6.1-.36-.01-.66-.08-.89-.23-.25-.16-.45-.37-.59-.62s-.25-.55-.3-.88-.08-.67-.08-1v-.27c0-.35.03-.68.08-1.01zM12 2C6.48 2 2 6.48 2 12s4.48 10 10 10 10-4.48 10-10S17.52 2 12 2zm0 18c-4.41 0-8-3.59-8-8s3.59-8 8-8 8 3.59 8 8-3.59 8-8 8z"/></symbol><symbol viewBox="0 0 24 24" id="email" xmlns="http://www.w3.org/2000/svg"><path d="M21.99 8c0-.72-.37-1.35-.94-1.7L12 1 2.95 6.3C2.38 6.65 2 7.28 2 8v10c0 1.1.9 2 2 2h16c1.1 0 2-.9 2-2l-.01-10zM12 13L3.74 7.84 12 3l8.26 4.84L12 13z"/><path d="M0 0h24v24H0z" fill="none"/></symbol><symbol viewBox="0 0 24 24" id="home" xmlns="http://www.w3.org/2000/svg"><path d="M10 20v-6h4v6h5v-8h3L12 3 2 12h3v8z"/></symbol><symbol viewBox="0 0 24 24" id="images" xmlns="http://www.w3.org/2000/svg"><path d="M22 16V4a2 2 0 00-2-2H8a2 2 0 00-2 2v12a2 2 0 002 2h12a2 2 0 002-2m-11-4l2.03 2.71L16 11l4 5H8M2 6v14a2 2 0 002 2h14v-2H4V6"/></symbol><symbol viewBox="0 0 24 24" id="library" xmlns="http://www.w3.org/2000/svg"><path d="M12 11.55C9.64 9.35 6.48 8 3 8v11c3.48 0 6.64 1.35 9 3.55 2.36-2.19 5.52-3.55 9-3.55V8c-3.48 0-6.64 1.35-9 3.55zM12 8c1.66 0 3-1.34 3-3s-1.34-3-3-3-3 1.34-3 3 1.34 3 3 3z"/></symbol><symbol viewBox="0 0 24 24" id="location" xmlns="http://www.w3.org/2000/svg"><path d="M12 2C8.13 2 5 5.13 5 9c0 5.25 7 13 7 13s7-7.75 7-13c0-3.87-3.13-7-7-7zm0 9.5a2.5 2.5 0 010-5 2.5 2.5 0 010 5z"/></symbol><symbol viewBox="0 0 24 24" id="map" xmlns="http://www.w3.org/2000/svg"><path d="M20.5 3l-.16.03L15 5.1 9 3 3.36 4.9c-.21.07-.36.25-.36.48V20.5c0 .28.22.5.5.5l.16-.03L9 18.9l6 2.1 5.64-1.9c.21-.07.36-.25.36-.48V3.5c0-.28-.22-.5-.5-.5zM15 19l-6-2.11V5l6 2.11V19z"/></symbol><symbol viewBox="0 0 24 24" id="phone" xmlns="http://www.w3.org/2000/svg"><path d="M20 15.5c-1.25 0-2.45-.2-3.57-.57a1.02 1.02 0 00-1.02.24l-2.2 2.2a15.045 15.045 0 01-6.59-6.59l2.2-2.21a.96.96 0 00.25-1A11.36 11.36 0 018.5 4c0-.55-.45-1-1-1H4c-.55 0-1 .45-1 1 0 9.39 7.61 17 17 17 .55 0 1-.45 1-1v-3.5c0-.55-.45-1-1-1zM19 12h2a9 9 0 00-9-9v2c3.87 0 7 3.13 7 7zm-4 0h2c0-2.76-2.24-5-5-5v2c1.66 0 3 1.34 3 3z"/></symbol><symbol viewBox="0 0 24 24" id="search" xmlns="http://www.w3.org/2000/svg"><path d="M15.5 14h-.79l-.28-.27A6.471 6.471 0 0016 9.5 6.5 6.5 0 109.5 16c1.61 0 3.09-.59 4.23-1.57l.27.28v.79l5 4.99L20.49 19l-4.99-5zm-6 0C7.01 14 5 11.99 5 9.5S7.01 5 9.5 5 14 7.01 14 9.5 11.99 14 9.5 14z"/></symbol><symbol viewBox="0 0 24 24" id="send" xmlns="http://www.w3.org/2000/svg"><path d="M2.01 21L23 12 2.01 3 2 10l15 2-15 2z"/></symbol><symbol viewBox="0 0 24 24" id="star" xmlns="http://www.w3.org/2000/svg"><path d="M12 17.27L18.18 21l-1.64-7.03L22 9.24l-7.19-.61L12 2 9.19 8.63 2 9.24l5.46 4.73L5.82 21z"/></symbol></svg>